<?xml version="1.0" encoding="UTF-8" standalone="no"?>
<!-- Created with Inkscape (http://www.inkscape.org/) -->

<svg
   xmlns:dc="http://purl.org/dc/elements/1.1/"
   xmlns:cc="http://creativecommons.org/ns#"
   xmlns:rdf="http://www.w3.org/1999/02/22-rdf-syntax-ns#"
   xmlns:svg="http://www.w3.org/2000/svg"
   xmlns="http://www.w3.org/2000/svg"
   xmlns:sodipodi="http://sodipodi.sourceforge.net/DTD/sodipodi-0.dtd"
   xmlns:inkscape="http://www.inkscape.org/namespaces/inkscape"
   width="210mm"
   height="297mm"
   viewBox="0 0 210 297"
   version="1.1"
   id="svg8569"
   inkscape:version="0.92.4 (5da689c313, 2019-01-14)"
   sodipodi:docname="Label.svg">
  <defs
     id="defs8563" />
  <sodipodi:namedview
     id="base"
     pagecolor="#ffffff"
     bordercolor="#666666"
     borderopacity="1.0"
     inkscape:pageopacity="0.0"
     inkscape:pageshadow="2"
     inkscape:zoom="1.4964582"
     inkscape:cx="383.65581"
     inkscape:cy="969.87621"
     inkscape:document-units="mm"
     inkscape:current-layer="layer1"
     showgrid="false"
     showguides="true"
     inkscape:guide-bbox="true"
     inkscape:window-width="2560"
     inkscape:window-height="1411"
     inkscape:window-x="-9"
     inkscape:window-y="-9"
     inkscape:window-maximized="1" />
  <metadata
     id="metadata8566">
    <rdf:RDF>
      <cc:Work
         rdf:about="">
        <dc:format>image/svg+xml</dc:format>
        <dc:type
           rdf:resource="http://purl.org/dc/dcmitype/StillImage" />
        <dc:title />
      </cc:Work>
    </rdf:RDF>
  </metadata>
  <g
     inkscape:label="Ebene 1"
     inkscape:groupmode="layer"
     id="layer1">
    <text
       xml:space="preserve"
       style="font-style:normal;font-variant:normal;font-weight:normal;font-stretch:normal;font-size:4.58611107px;line-height:1;font-family:'Microgramma D Extended';-inkscape-font-specification:'Microgramma D Extended';font-variant-ligatures:normal;font-variant-caps:normal;font-variant-numeric:normal;text-align:center;letter-spacing:0px;word-spacing:0px;writing-mode:lr-tb;text-anchor:middle;fill:#000000;fill-opacity:1;stroke:none;stroke-width:0.26458332"
       x="31.795195"
       y="26.235748"
       id="text13134"><tspan
         sodipodi:role="line"
         id="tspan13132"
         x="31.795195"
         y="29.903538"
         style="text-align:center;text-anchor:middle;stroke-width:0.26458332" /></text>
    <g
       id="g9590">
      <g
         id="g13118">
        <path
           inkscape:connector-curvature="0"
           id="path4767"
           style="fill:none;stroke:#000000;stroke-width:0.1;stroke-miterlimit:4;stroke-dasharray:none"
           d="m 36.773826,34.099154 a 3.4000001,3.4000001 0 1 0 6.8,0 3.4000001,3.4000001 0 1 0 -6.8,0 z" />
        <path
           inkscape:connector-curvature="0"
           id="path4769"
           style="fill:none;stroke:#000000;stroke-width:0.1;stroke-miterlimit:4;stroke-dasharray:none"
           d="m 78.265289,69.099163 a 15.25,15.25 0 1 0 30.500001,0 15.25,15.25 0 1 0 -30.500001,0 z" />
        <path
           inkscape:connector-curvature="0"
           id="path4773"
           style="fill:none;stroke:#000000;stroke-width:0.1;stroke-miterlimit:4;stroke-dasharray:none"
           d="m 38.073826,55.849147 a 1.0000001,1.0000001 0 0 1 -1,-0.999992 V 46.34915 a 1.0000001,1.0000001 0 0 1 1,-0.999992 h 4.2 a 1.0000001,1.0000001 0 0 1 1,0.999992 v 8.500005 a 1.0000001,1.0000001 0 0 1 -1,0.999992 z" />
        <path
           inkscape:connector-curvature="0"
           id="path4775"
           style="fill:none;stroke:#000000;stroke-width:0.1;stroke-miterlimit:4;stroke-dasharray:none"
           d="m 36.773826,67.099151 a 3.4000001,3.4000001 0 1 0 6.8,0 3.4000001,3.4000001 0 1 0 -6.8,0 z" />
        <path
           inkscape:connector-curvature="0"
           id="path4777"
           style="fill:none;stroke:#000000;stroke-width:0.1;stroke-miterlimit:4;stroke-dasharray:none"
           d="m 114.01529,13.599158 v 73.99999 H 22.173829 v -73.99999 z" />
        <path
           inkscape:connector-curvature="0"
           id="path4781"
           style="fill:none;stroke:#000000;stroke-width:0.1;stroke-miterlimit:4;stroke-dasharray:none"
           d="m 36.773826,34.099154 a 3.4000001,3.4000001 0 1 0 6.8,0 3.4000001,3.4000001 0 1 0 -6.8,0 z" />
        <path
           inkscape:connector-curvature="0"
           id="path4785"
           style="fill:none;stroke:#000000;stroke-width:0.1;stroke-miterlimit:4;stroke-dasharray:none"
           d="m 38.073826,55.849147 h 4.2 a 1.0000001,1.0000001 0 0 0 1,-0.999992 V 46.34915 a 1.0000001,1.0000001 0 0 0 -1,-0.999992 h -4.2 a 1.0000001,1.0000001 0 0 0 -1,0.999992 v 8.500005 a 1.0000001,1.0000001 0 0 0 1,0.999992 z" />
        <path
           inkscape:connector-curvature="0"
           id="path4789"
           style="fill:none;stroke:#000000;stroke-width:0.1;stroke-miterlimit:4;stroke-dasharray:none"
           d="m 36.773826,67.099151 a 3.4000001,3.4000001 0 1 0 6.8,0 3.4000001,3.4000001 0 1 0 -6.8,0 z" />
        <path
           inkscape:connector-curvature="0"
           id="path4793"
           style="fill:none;stroke:#000000;stroke-width:0.1;stroke-miterlimit:4;stroke-dasharray:none"
           d="m 78.265289,69.099163 a 15.25,15.25 0 1 0 30.500001,0 15.25,15.25 0 1 0 -30.500001,0 z" />
        <path
           inkscape:connector-curvature="0"
           id="path4795"
           style="fill:none;stroke:#000000;stroke-width:0.1;stroke-miterlimit:4;stroke-dasharray:none"
           d="m 50.01529,69.099163 a 9,9 0 1 0 17.999998,0 9,9 0 1 0 -17.999998,0 z" />
        <path
           inkscape:connector-curvature="0"
           id="path4797"
           style="fill:none;stroke:#000000;stroke-width:0.1;stroke-miterlimit:4;stroke-dasharray:none"
           d="m 37.923826,41.299154 a 2.25,2.25 0 1 0 4.5,0 2.25,2.25 0 1 0 -4.5,0 z" />
        <path
           inkscape:connector-curvature="0"
           id="path4799"
           style="fill:none;stroke:#000000;stroke-width:0.1;stroke-miterlimit:4;stroke-dasharray:none"
           d="m 37.923826,59.899151 a 2.25,2.25 0 1 0 4.5,0 2.25,2.25 0 1 0 -4.5,0 z" />
      </g>
      <text
         id="text13142"
         y="28.110546"
         x="40.186165"
         style="font-style:normal;font-variant:normal;font-weight:normal;font-stretch:normal;font-size:4.58611107px;line-height:1;font-family:'Microgramma D Extended';-inkscape-font-specification:'Microgramma D Extended';font-variant-ligatures:normal;font-variant-caps:normal;font-variant-numeric:normal;text-align:center;letter-spacing:0px;word-spacing:0px;writing-mode:lr-tb;text-anchor:middle;fill:#000000;fill-opacity:1;stroke:none;stroke-width:0.26458332"
         xml:space="preserve"><tspan
           style="stroke-width:0.26458332"
           y="28.110546"
           x="40.186165"
           id="tspan13140"
           sodipodi:role="line">Port #2</tspan></text>
      <text
         id="text13146"
         y="75.850555"
         x="40.186165"
         style="font-style:normal;font-variant:normal;font-weight:normal;font-stretch:normal;font-size:4.58611107px;line-height:1;font-family:'Microgramma D Extended';-inkscape-font-specification:'Microgramma D Extended';font-variant-ligatures:normal;font-variant-caps:normal;font-variant-numeric:normal;text-align:center;letter-spacing:0px;word-spacing:0px;writing-mode:lr-tb;text-anchor:middle;fill:#000000;fill-opacity:1;stroke:none;stroke-width:0.26458332"
         xml:space="preserve"><tspan
           style="stroke-width:0.26458332"
           y="75.850555"
           x="40.186165"
           id="tspan13144"
           sodipodi:role="line">Port #1</tspan></text>
      <text
         id="text13150"
         y="54.075562"
         x="58.972691"
         style="font-style:normal;font-variant:normal;font-weight:normal;font-stretch:normal;font-size:4.58611107px;line-height:1;font-family:'Microgramma D Extended';-inkscape-font-specification:'Microgramma D Extended';font-variant-ligatures:normal;font-variant-caps:normal;font-variant-numeric:normal;text-align:center;letter-spacing:0px;word-spacing:0px;writing-mode:lr-tb;text-anchor:middle;fill:#000000;fill-opacity:1;stroke:none;stroke-width:0.26458332"
         xml:space="preserve"><tspan
           style="stroke-width:0.26458332"
           y="54.075562"
           x="58.972691"
           id="tspan13148"
           sodipodi:role="line">Fire</tspan><tspan
           id="tspan13152"
           style="stroke-width:0.26458332"
           y="58.661674"
           x="58.972691"
           sodipodi:role="line">Rate</tspan></text>
      <text
         transform="scale(1.0223627,0.97812648)"
         id="text13156"
         y="44.069553"
         x="91.250771"
         style="font-style:normal;font-variant:normal;font-weight:normal;font-stretch:normal;font-size:4.3860383px;line-height:1;font-family:'Microgramma D Extended';-inkscape-font-specification:'Microgramma D Extended';font-variant-ligatures:normal;font-variant-caps:normal;font-variant-numeric:normal;text-align:center;letter-spacing:0px;word-spacing:0px;writing-mode:lr-tb;text-anchor:middle;fill:#000000;fill-opacity:1;stroke:none;stroke-width:0.26458332"
         xml:space="preserve"><tspan
           style="stroke-width:0.26458332"
           y="44.069553"
           x="91.250771"
           id="tspan13154"
           sodipodi:role="line">Rapid Fire</tspan><tspan
           id="tspan13158"
           style="stroke-width:0.26458332"
           y="48.455593"
           x="91.250771"
           sodipodi:role="line">ON/OFF</tspan></text>
      <g
         transform="translate(3.0594997,0.33587086)"
         id="g17759">
        <g
           id="g13037"
           transform="matrix(0.81808524,0,0,1,-45.085361,-74.132108)"
           style="stroke-width:1.10560691">
          <polygon
             transform="matrix(0.26458333,0,0,0.26458333,50.60586,-18.461077)"
             points="434.238,411.131 319.269,411.131 319.269,408.062 434.238,408.062 "
             id="polygon7"
             style="fill:#e2001a;fill-rule:evenodd;stroke-width:1.10560691" />
          <polygon
             transform="matrix(0.26458333,0,0,0.26458333,50.60586,-18.461077)"
             points="434.238,417.269 319.269,417.269 319.269,414.2 434.238,414.2 "
             id="polygon9"
             style="fill:#e95e38;fill-rule:evenodd;stroke-width:1.10560691" />
          <polygon
             transform="matrix(0.26458333,0,0,0.26458333,50.60586,-18.461077)"
             points="434.238,423.406 319.269,423.406 319.269,420.337 434.238,420.337 "
             id="polygon11"
             style="fill:#ffcc00;fill-rule:evenodd;stroke-width:1.10560691" />
          <polygon
             transform="matrix(0.26458333,0,0,0.26458333,50.60586,-18.461077)"
             points="434.238,429.544 319.269,429.544 319.269,426.475 434.238,426.475 "
             id="polygon13"
             style="fill:#57ab27;fill-rule:evenodd;stroke-width:1.10560691" />
          <polygon
             transform="matrix(0.26458333,0,0,0.26458333,50.60586,-18.461077)"
             points="434.238,435.682 319.269,435.682 319.269,432.613 434.238,432.613 "
             id="polygon15"
             style="fill:#009ee0;fill-rule:evenodd;stroke-width:1.10560691" />
        </g>
        <g
           id="g13030"
           transform="translate(-19.69933,-74.132108)">
          <path
             id="path13020"
             d="m 82.612241,93.326967 h -1.759744 v 1.443302 h 3.163094 z"
             style="fill:#000080;stroke-width:0.26458332"
             inkscape:connector-curvature="0" />
          <path
             id="path13018"
             d="m 84.015326,91.587597 h -3.163093 v 1.443037 h 1.7399 z"
             style="fill:#000080;stroke-width:0.26458332"
             inkscape:connector-curvature="0" />
          <path
             id="path12994"
             d="m 80.753543,91.488642 v -1.858168 c -0.375444,-0.09895 -0.632883,-0.138642 -1.008063,-0.138642 -1.957387,0 -3.677179,1.64121 -3.677179,3.677179 0,2.095765 1.739371,3.6576 3.696759,3.6576 0.355864,0 0.553508,-0.03969 0.988483,-0.15875 v -1.897592 c -0.43524,0.217223 -0.652198,0.27649 -1.008063,0.27649 -1.087437,0 -1.918229,-0.909108 -1.918229,-1.917435 0,-1.047486 0.810684,-1.937544 1.898121,-1.937544 0.375973,0 0.69215,0.09922 1.028171,0.296862 z"
             style="fill:#000080;stroke-width:0.26458332"
             inkscape:connector-curvature="0" />
        </g>
        <path
           id="path17"
           style="fill:#000080;stroke-width:0.26458332"
           d="m 95.589276,20.330192 v -0.416988 c 0,-0.147373 -0.0487,-0.240507 -0.14578,-0.27993 -0.0966,-0.03889 -0.30692,-0.059 -0.62997,-0.059 h -0.41963 c -0.32359,0 -0.53525,0.01826 -0.63553,0.0553 -0.10081,0.03625 -0.15081,0.130969 -0.15081,0.283369 v 0.416983 c 0,0.157956 0.05,0.256381 0.15081,0.295275 0.10028,0.03916 0.31221,0.05927 0.63553,0.05927 h 0.41963 c 0.3302,0 0.54213,-0.01984 0.63553,-0.05927 0.0931,-0.03863 0.14022,-0.137054 0.14022,-0.295009 z m 6.952194,-0.779463 v -1.897327 l -1.88463,1.897327 z m 3.10091,1.267619 h -0.92604 v 1.071033 h -2.17514 v -1.071033 h -3.930908 l 0.0109,-1.558925 3.112548,-3.094567 h 2.98265 v 3.385873 h 0.92604 z M 97.764412,20.41697 c 0,1.028965 -0.90434,1.543315 -2.714086,1.543315 h -0.92604 c -1.01971,0 -1.72641,-0.176213 -2.12143,-0.527315 -0.39529,-0.351896 -0.59214,-0.960967 -0.59214,-1.827212 v -1.165225 c 0,-0.860954 0.19685,-1.467115 0.59214,-1.819011 0.39476,-0.351896 1.10172,-0.527579 2.12143,-0.527579 h 0.92604 c 0.84032,0 1.472136,0.112713 1.895466,0.338667 0.42387,0.225954 0.63553,0.556419 0.63553,0.992187 v 0.417513 h -2.175666 v -0.14949 c 0,-0.136525 -0.0392,-0.225954 -0.11826,-0.268023 -0.0791,-0.0418 -0.23707,-0.06323 -0.47387,-0.06323 h -0.51726 c -0.29396,0 -0.4826,0.02381 -0.56489,0.07117 -0.0828,0.0471 -0.12409,0.159808 -0.12409,0.338402 v 0.802746 c 0.31565,-0.173038 0.70697,-0.259292 1.17422,-0.259292 h 0.76438 c 0.768346,0 1.330056,0.12991 1.685656,0.389467 0.35507,0.259821 0.53287,0.6604 0.53287,1.200943 z"
           inkscape:connector-curvature="0" />
      </g>
      <text
         id="text17731"
         y="28.073969"
         x="84.06588"
         style="font-style:normal;font-variant:normal;font-weight:normal;font-stretch:normal;font-size:4.58611107px;line-height:1;font-family:'Microgramma D Extended';-inkscape-font-specification:'Microgramma D Extended';font-variant-ligatures:normal;font-variant-caps:normal;font-variant-numeric:normal;text-align:center;letter-spacing:0px;word-spacing:0px;writing-mode:lr-tb;text-anchor:middle;fill:#000000;fill-opacity:1;stroke:none;stroke-width:0.26458332"
         xml:space="preserve"><tspan
           style="stroke-width:0.26458332"
           y="28.073969"
           x="84.06588"
           id="tspan17729"
           sodipodi:role="line">Control Port Switch</tspan></text>
      <rect
         y="30.28941"
         x="81.691833"
         height="6.6000099"
         width="23.400002"
         id="rect9492"
         style="opacity:0.98999999;fill:none;fill-opacity:1;fill-rule:nonzero;stroke:#000000;stroke-width:0.1;stroke-linecap:round;stroke-linejoin:miter;stroke-miterlimit:4;stroke-dasharray:none;stroke-dashoffset:0;stroke-opacity:1;paint-order:markers fill stroke" />
    </g>
  </g>
</svg>
