0
SECTION
2
HEADER
9
$INSUNITS
70
4
9
$ACADVER
1
AC1014
9
$HANDSEED
5
FFFF
0
ENDSEC
0
SECTION
2
TABLES
0
TABLE
2
VPORT
5
8
100
AcDbSymbolTable
0
ENDTAB
0
TABLE
2
LTYPE
5
5
100
AcDbSymbolTable
0
LTYPE
5
14
100
AcDbSymbolTableRecord
100
AcDbLinetypeTableRecord
2
BYBLOCK
70
0
0
LTYPE
5
15
100
AcDbSymbolTableRecord
100
AcDbLinetypeTableRecord
2
BYLAYER
70
0
0
ENDTAB
0
TABLE
2
LAYER
5
2
100
AcDbSymbolTable
70
2
0
LAYER
5
50
100
AcDbSymbolTableRecord
100
AcDbLayerTableRecord
2
0
70
0
6
CONTINUOUS
0
ENDTAB
0
TABLE
2
STYLE
5
3
100
AcDbSymbolTable
70
1
0
STYLE
5
11
100
AcDbSymbolTableRecord
100
AcDbTextStyleTableRecord
2
STANDARD
70
0
0
ENDTAB
0
TABLE
2
VIEW
5
6
100
AcDbSymbolTable
70
0
0
ENDTAB
0
TABLE
2
UCS
5
7
100
AcDbSymbolTable
70
0
0
ENDTAB
0
TABLE
2
APPID
5
9
100
AcDbSymbolTable
70
2
0
APPID
5
12
100
AcDbSymbolTableRecord
100
AcDbRegAppTableRecord
2
ACAD
70
0
0
ENDTAB
0
TABLE
2
DIMSTYLE
5
A
100
AcDbSymbolTable
70
1
0
ENDTAB
0
TABLE
2
BLOCK_RECORD
5
1
100
AcDbSymbolTable
70
1
0
BLOCK_RECORD
5
1F
100
AcDbSymbolTableRecord
100
AcDbBlockTableRecord
2
*MODEL_SPACE
0
BLOCK_RECORD
5
1B
100
AcDbSymbolTableRecord
100
AcDbBlockTableRecord
2
*PAPER_SPACE
0
ENDTAB
0
ENDSEC
0
SECTION
2
BLOCKS
0
BLOCK
5
20
100
AcDbEntity
100
AcDbBlockBegin
2
*MODEL_SPACE
0
ENDBLK
5
21
100
AcDbEntity
100
AcDbBlockEnd
0
BLOCK
5
1C
100
AcDbEntity
100
AcDbBlockBegin
2
*PAPER_SPACE
0
ENDBLK
5
1D
100
AcDbEntity
100
AcDbBlockEnd
0
ENDSEC
0
SECTION
2
ENTITIES
0
CIRCLE
5
100
100
AcDbEntity
8
0
100
AcDbCircle
10
-35.718005150857771
20
-17.563821831718087
30
0
40
5
210
0
220
-0
230
1
0
CIRCLE
5
101
100
AcDbEntity
8
0
100
AcDbCircle
10
-16.876542920246717
20
-26.763821831718086
30
0
40
1.25
210
0
220
-0
230
1
0
CIRCLE
5
102
100
AcDbEntity
8
0
100
AcDbCircle
10
-16.876542920246717
20
-52.563821831718087
30
0
40
3.4000000000000008
210
0
220
-0
230
1
0
CIRCLE
5
103
100
AcDbEntity
8
0
100
AcDbCircle
10
-70.218005150857778
20
-17.563821831718087
30
0
40
15.250000000000004
210
0
220
-0
230
1
0
CIRCLE
5
104
100
AcDbEntity
8
0
100
AcDbCircle
10
-16.876542920246717
20
-45.363821831718091
30
0
40
1.25
210
0
220
-0
230
1
0
LWPOLYLINE
5
105
100
AcDbEntity
8
0
100
AcDbPolyline
90
8
70
1
43
0.0
10
-14.776542920246722
20
-30.813821831718084
42
-0.41421356237309243
10
-13.776542920246722
20
-31.813821831718087
10
-13.776542920246719
20
-40.313821831718087
42
-0.4142135623730957
10
-14.776542920246719
20
-41.313821831718087
10
-18.976542920246715
20
-41.313821831718087
42
-0.4142135623730957
10
-19.976542920246715
20
-40.313821831718087
10
-19.976542920246718
20
-31.813821831718094
42
-0.41421356237309825
10
-18.976542920246715
20
-30.813821831718087
0
CIRCLE
5
106
100
AcDbEntity
8
0
100
AcDbCircle
10
-16.876542920246717
20
-19.563821831718087
30
0
40
3.4000000000000008
210
0
220
-0
230
1
0
LWPOLYLINE
5
107
100
AcDbEntity
8
0
100
AcDbPolyline
90
4
70
1
43
0.0
10
-90.718005150857763
20
-73.063821831718087
10
-90.718005150857778
20
0.93617816828191147
10
1.1234570797532806
20
0.93617816828190925
10
1.1234570797532761
20
-73.063821831718087
0
LWPOLYLINE
5
108
100
AcDbEntity
8
0
100
AcDbPolyline
90
4
70
1
43
0.0
10
1.1234570797532761
20
-73.063821831718087
10
1.1234570797532761
20
0.93617816828190925
10
-90.718005150857778
20
0.93617816828190925
10
-90.718005150857763
20
-73.063821831718087
0
CIRCLE
5
109
100
AcDbEntity
8
0
100
AcDbCircle
10
-16.876542920246717
20
-52.563821831718087
30
0
40
3.4000000000000008
210
0
220
-0
230
1
0
CIRCLE
5
110
100
AcDbEntity
8
0
100
AcDbCircle
10
-16.876542920246717
20
-45.363821831718091
30
0
40
1.25
210
0
220
-0
230
1
0
LWPOLYLINE
5
111
100
AcDbEntity
8
0
100
AcDbPolyline
90
8
70
1
43
0.0
10
-14.776542920246722
20
-30.813821831718087
10
-18.976542920246718
20
-30.813821831718087
42
0.41421356237309631
10
-19.976542920246718
20
-31.813821831718087
10
-19.976542920246718
20
-40.313821831718087
42
0.4142135623730957
10
-18.976542920246715
20
-41.313821831718087
10
-14.776542920246721
20
-41.313821831718087
42
0.41421356237309631
10
-13.776542920246719
20
-40.313821831718087
10
-13.776542920246722
20
-31.813821831718087
42
0.41421356237309243
0
CIRCLE
5
112
100
AcDbEntity
8
0
100
AcDbCircle
10
-16.876542920246717
20
-26.763821831718086
30
0
40
1.25
210
0
220
-0
230
1
0
CIRCLE
5
113
100
AcDbEntity
8
0
100
AcDbCircle
10
-16.876542920246717
20
-19.563821831718087
30
0
40
3.4000000000000008
210
0
220
-0
230
1
0
CIRCLE
5
114
100
AcDbEntity
8
0
100
AcDbCircle
10
-35.718005150857771
20
-17.563821831718087
30
0
40
5
210
0
220
-0
230
1
0
CIRCLE
5
115
100
AcDbEntity
8
0
100
AcDbCircle
10
-70.218005150857778
20
-17.563821831718087
30
0
40
15.250000000000004
210
0
220
-0
230
1
0
CIRCLE
5
116
100
AcDbEntity
8
0
100
AcDbCircle
10
-35.718005150857771
20
-17.563821831718087
30
0
40
9.0000000000000036
210
0
220
0
230
1
0
CIRCLE
5
117
100
AcDbEntity
8
0
100
AcDbCircle
10
-16.876542920246717
20
-45.363821831718091
30
0
40
2.2500000000000004
210
0
220
0
230
1
0
CIRCLE
5
118
100
AcDbEntity
8
0
100
AcDbCircle
10
-16.876542920246717
20
-26.763821831718086
30
0
40
2.2500000000000009
210
0
220
0
230
1
0
LWPOLYLINE
5
119
100
AcDbEntity
8
0
100
AcDbPolyline
90
4
70
1
43
0.0
10
-81.794548072052095
20
-49.773547528775822
10
-81.794548072052095
20
-56.373547528775838
10
-58.394548072052089
20
-56.373547528775831
10
-58.394548072052089
20
-49.773547528775836
0
ENDSEC
0
SECTION
2
OBJECTS
0
DICTIONARY
5
C
100
AcDbDictionary
3
ACAD_GROUP
350
D
3
ACAD_MLINESTYLE
350
17
0
DICTIONARY
5
D
100
AcDbDictionary
0
DICTIONARY
5
1A
330
C
100
AcDbDictionary
0
DICTIONARY
5
17
100
AcDbDictionary
0
ENDSEC
0
EOF
