<?xml version="1.0" encoding="UTF-8" standalone="no"?>
<!-- Created with Inkscape (http://www.inkscape.org/) -->

<svg
   xmlns:dc="http://purl.org/dc/elements/1.1/"
   xmlns:cc="http://creativecommons.org/ns#"
   xmlns:rdf="http://www.w3.org/1999/02/22-rdf-syntax-ns#"
   xmlns:svg="http://www.w3.org/2000/svg"
   xmlns="http://www.w3.org/2000/svg"
   xmlns:sodipodi="http://sodipodi.sourceforge.net/DTD/sodipodi-0.dtd"
   xmlns:inkscape="http://www.inkscape.org/namespaces/inkscape"
   width="210mm"
   height="297mm"
   viewBox="0 0 210 297"
   version="1.1"
   id="svg4785"
   inkscape:version="0.92.4 (5da689c313, 2019-01-14)"
   sodipodi:docname="64_logo.svg"
   inkscape:export-filename="X:\Projekte\_Eigene\C64-Projects\Joy-Switch_Rapid_fire\Firmware\inkscape\Rastergrafik.png"
   inkscape:export-xdpi="128"
   inkscape:export-ydpi="128">
  <defs
     id="defs4779" />
  <sodipodi:namedview
     id="base"
     pagecolor="#ffffff"
     bordercolor="#666666"
     borderopacity="1.0"
     inkscape:pageopacity="0.0"
     inkscape:pageshadow="2"
     inkscape:zoom="19.474163"
     inkscape:cx="122.53154"
     inkscape:cy="758.52345"
     inkscape:document-units="mm"
     inkscape:current-layer="layer1"
     showgrid="false"
     inkscape:window-width="2560"
     inkscape:window-height="1411"
     inkscape:window-x="-9"
     inkscape:window-y="-9"
     inkscape:window-maximized="1" />
  <metadata
     id="metadata4782">
    <rdf:RDF>
      <cc:Work
         rdf:about="">
        <dc:format>image/svg+xml</dc:format>
        <dc:type
           rdf:resource="http://purl.org/dc/dcmitype/StillImage" />
        <dc:title />
      </cc:Work>
    </rdf:RDF>
  </metadata>
  <g
     inkscape:label="Ebene 1"
     inkscape:groupmode="layer"
     id="layer1">
    <g
       transform="matrix(0.26458333,0,0,0.26458333,-72.974911,46.09774)"
       id="g4760"
       style="fill:#000000;fill-opacity:1"
       inkscape:export-xdpi="103.94639"
       inkscape:export-ydpi="103.94639">
      <path
         stroke-miterlimit="10"
         d="m 394.876,166.08 -11.833,12.499 c 0,0 -2.424,2.868 -2.424,6.105 0,4.697 4.316,8.6 9.312,8.6 7.416,0 10.098,-4.412 9.994,-8.031 -0.082,-2.825 -1.318,-4.299 -2.266,-4.866 h 6.101 v 12.897 h 3.682 v -12.897 l 0.584,0.002 3.229,-4.104 h -3.813 v -9.811 l -3.419,3.676 v 6.391 h -6.628 v -1.753 l 8.263,-8.708 h -4.733 l -13.2,14.082 c 0,0 8.211,-1.583 8.461,4.297 0.167,3.908 -3.358,5.373 -6.254,5.373 -1.473,0 -5.509,-1.251 -5.742,-5.029 -0.148,-2.378 1.549,-3.973 1.549,-3.973 l 13.818,-14.75 z"
         id="path4758"
         inkscape:connector-curvature="0"
         style="fill:#000000;fill-opacity:1;stroke:#000000;stroke-width:0.5;stroke-miterlimit:10" />
    </g>
  </g>
</svg>
